<svg height="512pt" viewBox="0 -60 512 512" width="512pt" xmlns="http://www.w3.org/2000/svg"><path d="m452.21875 26.855469c-34.835938-17.316407-80.78125-26.855469-129.375-26.855469h-133.6875c48.589844 0 87.328125 9.539062 122.164062 26.855469 38.550782 19.164062 59.78125 46.003906 59.78125 75.578125 0 25.832031-16.617187 50.054687-46.878906 68.476562v181.652344c0 21.214844-17.257812 38.472656-38.476562 38.472656h140.898437c21.25 0 38.476563-17.222656 38.476563-38.472656v-171.617188c0-6.027343 2.914062-11.703124 7.855468-15.160156 25.269532-17.679687 39.023438-39.851562 39.023438-63.351562 0-29.574219-21.230469-56.414063-59.78125-75.578125zm0 0" fill="#c9781f"/><path d="m351.957031 352.5625v-169.015625c0-7.492187 3.507813-14.601563 9.578125-18.988281 24.171875-17.472656 37.300782-39.164063 37.300782-62.125 0-29.574219-21.230469-56.417969-59.78125-75.578125-34.835938-17.320313-73.574219-26.855469-122.164063-26.855469h-27.734375c48.589844 0 87.328125 9.535156 122.164062 26.855469 38.550782 19.160156 59.78125 46.003906 59.78125 75.578125 0 25.828125-16.617187 50.054687-46.878906 68.472656v181.65625c0 21.214844-17.257812 38.472656-38.476562 38.472656h27.734375c21.214843 0 38.476562-17.257812 38.476562-38.472656zm0 0" fill="#b26314"/><path d="m292.957031 391.035156h-207.601562c-21.21875 0-38.476563-17.257812-38.476563-38.472656v-181.65625c-30.265625-18.421875-46.878906-42.632812-46.878906-68.472656 0-29.574219 21.230469-56.414063 59.78125-75.578125 34.835938-17.316407 80.78125-26.855469 129.375-26.855469 101.710938 0 189.15625 42.015625 189.15625 102.433594 0 25.832031-16.617188 50.054687-46.878906 68.476562v181.652344c0 21.214844-17.257813 38.472656-38.476563 38.472656zm0 0" fill="#d78c33"/><path d="m67.402344 352.5625v-166.238281c0-9.238281-4.441406-17.847657-11.8125-23.417969-22.75-17.179688-35.066406-38.222656-35.066406-60.472656 0-29.574219 21.230468-56.414063 59.78125-75.578125 32.371093-16.09375 74.34375-25.460938 119.113281-26.707031-3.40625-.0937505-6.828125-.148438-10.261719-.148438-48.59375 0-94.539062 9.539062-129.375 26.855469-38.550781 19.164062-59.78125 46.003906-59.78125 75.578125 0 25.839844 16.613281 50.050781 46.878906 68.476562v181.652344c0 21.214844 17.257813 38.472656 38.476563 38.472656h20.519531c-21.246094 0-38.472656-17.222656-38.472656-38.472656zm0 0" fill="#c9781f"/><path d="m189.15625 33.421875c-91.777344 0-155.734375 36.371094-155.734375 69.011719 0 19.253906 20.84375 34.183594 33.265625 41.371094 8.398438 4.855468 13.613281 13.859374 13.613281 23.496093v185.261719c0 2.785156 2.265625 5.054688 5.054688 5.054688h207.601562c2.789063 0 5.054688-2.265626 5.054688-5.054688v-184.714844c0-9.949218 5.3125-19.21875 13.867187-24.195312 12.332032-7.164063 33.011719-22.054688 33.011719-41.21875 0-32.640625-63.957031-69.011719-155.734375-69.011719zm0 0" fill="#f4b36c"/><g fill="#e6a050"><path d="m100.648438 352.5625v-185.261719c0-9.636719-5.21875-18.640625-13.613282-23.496093-12.425781-7.1875-33.265625-22.117188-33.265625-41.371094 0-31.421875 59.265625-66.289063 145.558594-68.855469-3.351563-.097656-6.738281-.15625-10.171875-.15625-91.777344 0-155.734375 36.371094-155.734375 69.011719 0 19.253906 20.839844 34.183594 33.265625 41.371094 8.394531 4.855468 13.613281 13.855468 13.613281 23.496093v185.261719c0 2.785156 2.265625 5.054688 5.050781 5.054688h20.347657c-2.785157-.003907-5.050781-2.269532-5.050781-5.054688zm0 0"/><path d="m146.015625 252.484375c-3.019531-3.015625-3.019531-7.910156 0-10.925781l70.898437-70.902344c3.015626-3.015625 7.910157-3.015625 10.925782 0 3.019531 3.019531 3.019531 7.910156 0 10.929688l-70.898438 70.898437c-3.015625 3.019531-7.910156 3.015625-10.925781 0zm0 0"/><path d="m126.144531 216.160156c-3.015625-3.015625-3.015625-7.910156 0-10.925781l54.445313-54.445313c3.015625-3.015624 7.910156-3.015624 10.925781 0 3.019531 3.019532 3.019531 7.910157 0 10.929688l-54.441406 54.441406c-3.019531 3.019532-7.910157 3.015625-10.929688 0zm0 0"/><path d="m182.339844 272.355469c-3.019532-3.019531-3.019532-7.910157 0-10.929688l54.441406-54.441406c3.019531-3.015625 7.910156-3.015625 10.929688 0 3.015624 3.015625 3.015624 7.910156 0 10.925781l-54.445313 54.445313c-3.015625 3.015625-7.910156 3.015625-10.925781 0zm0 0"/></g></svg>