<svg height="512pt" viewBox="0 -21 512 512" width="512pt" xmlns="http://www.w3.org/2000/svg"><path d="m495.917969 223.453125h-479.835938c-8.84375 0-16.082031 7.238281-16.082031 16.082031v19.113282c0 8.84375 7.238281 16.082031 16.082031 16.082031h479.835938c8.84375 0 16.082031-7.238281 16.082031-16.082031v-19.113282c0-8.84375-7.238281-16.082031-16.082031-16.082031zm0 0" fill="#e95353"/><path d="m495.917969 254.125h-479.835938c-8.59375 0-15.648437-6.835938-16.0429685-15.335938-.0117187.25-.0390625.496094-.0390625.746094v19.113282c0 8.84375 7.238281 16.082031 16.082031 16.082031h479.835938c8.84375 0 16.082031-7.238281 16.082031-16.082031v-19.113282c0-.25-.027344-.496094-.039062-.746094-.394532 8.5-7.449219 15.335938-16.042969 15.335938zm0 0" fill="#d44545"/><path d="m254.355469 274.730469h-228.632813c-14.160156 0-25.6406248 11.476562-25.6406248 25.636719 0 14.160156 11.4804688 25.640624 25.6406248 25.640624h278.042969zm0 0" fill="#50bc37"/><path d="m486.28125 274.730469h-19.035156l-49.410156 51.277343h68.445312c14.15625 0 25.636719-11.480468 25.636719-25.640624 0-14.160157-11.480469-25.636719-25.636719-25.636719zm0 0" fill="#61ce4a"/><path d="m486.28125 304.945312h-48.152344l-20.292968 21.0625h68.445312c14.15625 0 25.636719-11.480468 25.636719-25.640624 0-3.753907-.816407-7.316407-2.265625-10.527344-4.019532 8.902344-12.96875 15.105468-23.371094 15.105468zm0 0" fill="#349b18"/><path d="m303.765625 326.007812h-287.683594c-8.882812 0-16.082031 7.199219-16.082031 16.078126 0 8.882812 7.199219 16.082031 16.082031 16.082031h318.679688zm0 0" fill="#61ce4a"/><path d="m495.835938 326.007812h-78.003907l-30.992187 32.160157h108.996094c8.882812 0 16.082031-7.199219 16.082031-16.082031 0-8.878907-7.199219-16.078126-16.082031-16.078126zm0 0" fill="#61ce4a"/><path d="m486.363281 358.167969h-99.523437l-14.710938 15.269531c-6.1875 6.417969-16.46875 6.417969-22.65625 0l-14.710937-15.269531h-309.125c-14.101563 0-25.636719 11.539062-25.636719 25.640625 0 14.097656 11.535156 25.636718 25.636719 25.636718h460.726562c14.101563 0 25.636719-11.539062 25.636719-25.636718 0-14.101563-11.535156-25.640625-25.636719-25.640625zm0 0" fill="#b26314"/><path d="m493.328125 408.628906h-474.65625c-10.652344 0-19.308594 9.074219-18.542969 19.84375 1.570313 22.066406 19.539063 41.246094 43.699219 41.246094h424.34375c24.160156 0 42.128906-19.179688 43.695313-41.246094.769531-10.769531-7.886719-19.84375-18.539063-19.84375zm0 0" fill="#f4b36c"/><path d="m25.722656 305.402344c-10.496094 0-19.511718-6.308594-23.480468-15.335938-1.382813 3.152344-2.1601568 6.636719-2.1601568 10.300782 0 14.160156 11.4804688 25.640624 25.6406248 25.640624h278.042969l-19.855469-20.605468zm0 0" fill="#349b18"/><path d="m16.082031 337.5625c-4.960937 0-9.394531-2.246094-12.34375-5.777344-2.332031 2.789063-3.738281 6.378906-3.738281 10.300782 0 8.882812 7.199219 16.082031 16.082031 16.082031h318.679688l-19.855469-20.605469zm0 0" fill="#50bc37"/><path d="m495.835938 337.5625h-89.140626l-19.855468 20.605469h108.996094c8.882812 0 16.082031-7.199219 16.082031-16.082031 0-3.921876-1.40625-7.511719-3.738281-10.300782-2.953126 3.53125-7.382813 5.777344-12.34375 5.777344zm0 0" fill="#61ce4a"/><path d="m486.363281 388.839844h-460.726562c-10.441407 0-19.46875-6.328125-23.457031-15.335938-1.398438 3.15625-2.179688 6.644532-2.179688 10.304688 0 14.097656 11.535156 25.636718 25.636719 25.636718h460.726562c14.101563 0 25.636719-11.539062 25.636719-25.636718 0-3.660156-.78125-7.148438-2.179688-10.304688-3.988281 9.007813-13.015624 15.335938-23.457031 15.335938zm0 0" fill="#a3520a"/><path d="m468.171875 449.113281h-424.34375c-20.136719 0-35.964844-13.328125-41.589844-30.546875-1.554687 2.9375-2.363281 6.320313-2.105469 9.90625 1.566407 22.066406 19.535157 41.246094 43.695313 41.246094h424.34375c24.160156 0 42.128906-19.179688 43.699219-41.246094.253906-3.582031-.550782-6.96875-2.109375-9.90625-5.625 17.21875-21.453125 30.546875-41.589844 30.546875zm0 0" fill="#e6a050"/><path d="m507.910156 161.804688c-43.917968-95.515626-140.195312-161.804688-251.910156-161.804688s-207.992188 66.289062-251.910156 161.804688c-13.398438 29.140624 7.757812 62.410156 39.738281 62.410156h424.34375c31.980469 0 53.136719-33.269532 39.738281-62.410156zm0 0" fill="#f4b36c"/><g fill="#e6a050"><path d="m24.355469 161.804688c42.585937-92.613282 134.394531-157.75 241.777343-161.621094-3.363281-.121094-6.742187-.183594-10.132812-.183594-111.714844 0-207.992188 66.289062-251.910156 161.804688-13.398438 29.140624 7.757812 62.410156 39.738281 62.410156h20.265625c-31.984375 0-53.140625-33.269532-39.738281-62.410156zm0 0"/><path d="m128.292969 128.140625c-6.109375 0-11.0625-4.957031-11.0625-11.066406v-2.308594c0-6.109375 4.953125-11.066406 11.0625-11.066406 6.113281 0 11.066406 4.957031 11.066406 11.066406v2.308594c0 6.109375-4.957031 11.066406-11.066406 11.066406zm0 0"/><path d="m208.84375 128.140625c-6.113281 0-11.066406-4.957031-11.066406-11.066406v-2.308594c0-6.109375 4.953125-11.066406 11.066406-11.066406 6.109375 0 11.0625 4.957031 11.0625 11.066406v2.308594c0 6.109375-4.953125 11.066406-11.0625 11.066406zm0 0"/><path d="m289.390625 128.140625c-6.113281 0-11.066406-4.957031-11.066406-11.066406v-2.308594c0-6.109375 4.953125-11.066406 11.066406-11.066406 6.109375 0 11.0625 4.957031 11.0625 11.066406v2.308594c0 6.109375-4.953125 11.066406-11.0625 11.066406zm0 0"/><path d="m369.9375 128.140625c-6.109375 0-11.066406-4.957031-11.066406-11.066406v-2.308594c0-6.109375 4.957031-11.066406 11.066406-11.066406 6.113281 0 11.066406 4.957031 11.066406 11.066406v2.308594c0 6.109375-4.953125 11.066406-11.066406 11.066406zm0 0"/><path d="m168.566406 81.761719c-6.109375 0-11.0625-4.953125-11.0625-11.066407v-2.308593c0-6.109375 4.953125-11.0625 11.0625-11.0625 6.113282 0 11.066406 4.953125 11.066406 11.0625v2.308593c0 6.113282-4.953124 11.066407-11.066406 11.066407zm0 0"/><path d="m249.117188 81.761719c-6.113282 0-11.066407-4.953125-11.066407-11.066407v-2.308593c0-6.109375 4.953125-11.0625 11.066407-11.0625 6.109374 0 11.0625 4.953125 11.0625 11.0625v2.308593c.003906 6.113282-4.953126 11.066407-11.0625 11.066407zm0 0"/><path d="m329.664062 81.761719c-6.109374 0-11.066406-4.953125-11.066406-11.066407v-2.308593c0-6.109375 4.957032-11.0625 11.066406-11.0625 6.109376 0 11.066407 4.953125 11.066407 11.0625v2.308593c0 6.113282-4.957031 11.066407-11.066407 11.066407zm0 0"/></g><path d="m251.546875 274.730469 97.628906 101.3125c6.347657 6.589843 16.898438 6.589843 23.25 0l97.628907-101.3125zm0 0" fill="#fed42d"/><path d="m277.585938 274.730469h-26.039063l97.628906 101.308593c6.347657 6.589844 16.898438 6.589844 23.25 0l1.394531-1.445312zm0 0" fill="#febe30"/></svg>